<svg xmlns="http://www.w3.org/2000/svg" width="2200" height="839" viewBox="0 0 2200 839" version="1.1">
	<path d="M 245.500 0.985 C 244.400 1.466, 240.973 1.891, 237.885 1.930 C 226.183 2.076, 196.161 6.869, 177.613 11.553 C 121.255 25.783, 79.340 51.114, 52.398 87.226 C 46.118 95.644, 35.606 114.376, 33.725 120.500 C 33.387 121.600, 32.241 124.992, 31.177 128.038 C 26.788 140.601, 25.499 150.509, 25.520 171.500 C 25.542 192.743, 26.578 200.326, 31.534 215.507 C 46.936 262.691, 90.790 295.408, 170 318.809 C 194.983 326.190, 216.915 331.272, 253 338.039 C 273.948 341.968, 307.538 348.657, 316 350.585 C 360.636 360.756, 385.080 367.592, 404 375.196 C 446.744 392.374, 464.250 410.195, 469.539 441.915 C 474.132 469.455, 465.862 494.305, 445.372 514.530 C 420.840 538.746, 379.847 553.906, 327.500 558.121 C 318.883 558.815, 303.118 559.025, 286.500 558.667 C 218.127 557.194, 170.819 542.122, 132.142 509.489 C 127.971 505.971, 115.955 491.700, 111.422 484.882 C 101.038 469.264, 93.595 448.267, 91.789 429.500 L 91.500 426.500 45.750 426.240 L 0 425.980 0 432.443 C -0 435.998, 0.402 439.940, 0.893 441.203 C 1.384 442.466, 2.297 447.438, 2.922 452.252 C 4.516 464.532, 10.244 485.789, 14.710 496 C 25.398 520.432, 35.230 535.654, 51.289 552.629 C 88.047 591.486, 146.283 617.964, 218 628.426 C 245.406 632.424, 260.129 633.340, 297.500 633.371 C 329.902 633.398, 336.554 633.131, 351.029 631.224 C 386.638 626.531, 413.204 619.655, 441.486 607.813 C 456.661 601.459, 460.871 599.315, 474.864 590.818 C 491.182 580.908, 500.861 573.283, 514.530 559.569 C 528.535 545.519, 528.890 545.098, 537.460 532.371 C 556.547 504.025, 565.185 470.740, 562.102 437.418 C 558.860 402.382, 547.093 376.902, 522.081 350.764 C 500.269 327.970, 476.537 313.416, 436.713 298.413 C 432.721 296.909, 421.899 293.688, 413.500 291.502 C 410.750 290.787, 405.800 289.455, 402.500 288.543 C 373.058 280.408, 320.848 268.400, 283 261.059 C 253.006 255.242, 250.650 254.753, 226.500 249.333 C 176.432 238.097, 140.301 222.165, 128.671 206.195 C 119.811 194.030, 117.560 185.879, 117.568 166 C 117.575 151.038, 117.685 150.213, 120.726 142.227 C 132.345 111.720, 164.048 89.830, 210.747 80.069 C 234.415 75.121, 241.629 74.542, 279.500 74.542 C 320.642 74.542, 334.384 75.977, 360.472 83.001 C 391.786 91.433, 417.839 107.885, 432.640 128.575 L 436.500 133.971 486 133.735 C 534.884 133.503, 535.496 133.475, 535.155 131.500 C 534.836 129.654, 533.304 125.883, 529.289 117.056 C 524.075 105.595, 511.928 88.218, 501.011 76.604 C 461.011 34.050, 401.619 9.697, 318.500 1.769 C 304.490 0.433, 248.149 -0.172, 245.500 0.985 M 623.667 59.667 C 623.300 60.033, 623 75.333, 623 93.667 L 623 127 720.998 127 L 818.996 127 819.248 377.250 L 819.500 627.500 862.500 627.500 L 905.500 627.500 906 377.500 L 906.500 127.500 1005.638 127.245 L 1104.777 126.990 1106.308 123.745 C 1110.719 114.398, 1116 102.839, 1116 102.530 C 1116 102.337, 1117.530 98.876, 1119.399 94.839 C 1129.150 73.787, 1135 60.681, 1135 59.888 C 1135 58.862, 624.692 58.641, 623.667 59.667 M 1275.139 60.750 C 1274.627 61.712, 1271.883 68.125, 1269.043 75 C 1266.202 81.875, 1263.486 88.400, 1263.007 89.500 C 1260.238 95.856, 1258.249 100.578, 1249.953 120.500 C 1233.495 160.024, 1219.929 192.460, 1219.005 194.500 C 1218.507 195.600, 1213.326 207.975, 1207.493 222 C 1197.916 245.022, 1195.887 249.851, 1192.995 256.500 C 1192.516 257.600, 1188.024 268.400, 1183.012 280.500 C 1178 292.600, 1173.494 303.400, 1173 304.500 C 1172.506 305.600, 1167.331 317.975, 1161.500 332 C 1155.669 346.025, 1150.492 358.400, 1149.994 359.500 C 1149.040 361.609, 1132.959 400.132, 1120.357 430.500 C 1116.248 440.400, 1112.487 449.400, 1111.998 450.500 C 1111.509 451.600, 1110.160 454.750, 1109 457.500 C 1107.840 460.250, 1106.493 463.400, 1106.008 464.500 C 1105.522 465.600, 1101.016 476.400, 1095.994 488.500 C 1087.607 508.710, 1085.427 513.909, 1082.995 519.500 C 1082.516 520.600, 1078.024 531.400, 1073.012 543.500 C 1068 555.600, 1063.492 566.400, 1062.994 567.500 C 1062.496 568.600, 1057.307 580.975, 1051.462 595 C 1045.617 609.025, 1040.197 621.918, 1039.418 623.651 C 1038.638 625.384, 1038 627.077, 1038 627.412 C 1038 627.747, 1057.369 627.904, 1081.041 627.761 L 1124.083 627.500 1127.450 619 C 1129.301 614.325, 1134.252 601.725, 1138.450 591 C 1142.649 580.275, 1146.498 570.600, 1147.004 569.500 C 1147.510 568.400, 1150.461 560.975, 1153.562 553 C 1156.663 545.025, 1163.385 527.925, 1168.500 515 C 1173.615 502.075, 1180.352 484.975, 1183.472 477 C 1186.591 469.025, 1189.871 460.816, 1190.761 458.757 L 1192.378 455.015 1321.785 454.757 C 1392.958 454.616, 1451.486 454.725, 1451.847 455 C 1452.783 455.713, 1454.078 458.602, 1461.034 475.500 C 1468.180 492.856, 1469.800 496.747, 1471.026 499.500 C 1471.516 500.600, 1474.204 507.125, 1477 514 C 1479.796 520.875, 1482.488 527.400, 1482.983 528.500 C 1483.478 529.600, 1487.304 538.825, 1491.486 549 C 1495.667 559.175, 1499.491 568.400, 1499.983 569.500 C 1500.475 570.600, 1503.173 577.125, 1505.979 584 C 1508.784 590.875, 1511.484 597.400, 1511.979 598.500 C 1512.473 599.600, 1515.437 606.679, 1518.566 614.230 L 1524.254 627.961 1569.723 628.230 C 1594.731 628.379, 1615.375 628.203, 1615.599 627.840 C 1615.966 627.246, 1614.374 623.078, 1610.504 614.502 C 1609.759 612.851, 1608.043 609.025, 1606.690 606 C 1605.338 602.975, 1602.841 597.477, 1601.142 593.783 C 1599.443 590.088, 1596.865 584.238, 1595.414 580.783 C 1593.963 577.327, 1591.026 570.743, 1588.888 566.151 C 1586.749 561.559, 1585 557.652, 1585 557.470 C 1585 557.151, 1581.451 549.190, 1576.421 538.223 C 1575.089 535.320, 1574 532.774, 1574 532.565 C 1574 532.356, 1571.975 527.851, 1569.500 522.554 C 1567.025 517.257, 1565 512.728, 1565 512.489 C 1565 512.250, 1563.914 509.680, 1562.586 506.777 C 1561.259 503.875, 1558.559 497.972, 1556.586 493.661 C 1554.614 489.349, 1553 485.663, 1553 485.470 C 1553 485.277, 1551.200 481.240, 1549 476.500 C 1546.800 471.760, 1545 467.686, 1545 467.447 C 1545 467.208, 1542.975 462.708, 1540.500 457.446 C 1538.025 452.185, 1536 447.694, 1536 447.467 C 1536 447.240, 1534.914 444.680, 1533.586 441.777 C 1532.259 438.875, 1529.559 432.972, 1527.586 428.661 C 1525.614 424.349, 1524 420.668, 1524 420.481 C 1524 420.293, 1522.686 417.296, 1521.081 413.820 C 1519.475 410.344, 1516.325 403.337, 1514.081 398.250 C 1511.836 393.163, 1508.164 384.837, 1505.919 379.750 C 1503.675 374.663, 1500.525 367.656, 1498.919 364.180 C 1497.314 360.704, 1496 357.712, 1496 357.530 C 1496 357.348, 1494.251 353.441, 1492.112 348.849 C 1489.974 344.257, 1486.999 337.575, 1485.500 334 C 1484.001 330.425, 1481.026 323.743, 1478.888 319.151 C 1476.749 314.559, 1475 310.654, 1475 310.474 C 1475 310.294, 1473.478 306.851, 1471.618 302.823 C 1469.757 298.795, 1467.098 292.800, 1465.708 289.500 C 1464.318 286.200, 1461.340 279.536, 1459.091 274.691 C 1456.841 269.846, 1455 265.700, 1455 265.479 C 1455 265.258, 1452.975 260.743, 1450.500 255.446 C 1448.025 250.149, 1446 245.663, 1446 245.477 C 1446 245.152, 1442.482 237.257, 1437.421 226.223 C 1436.089 223.320, 1435 220.774, 1435 220.565 C 1435 220.356, 1432.975 215.851, 1430.500 210.554 C 1428.025 205.257, 1426 200.749, 1426 200.535 C 1426 200.321, 1424.484 196.851, 1422.632 192.823 C 1420.779 188.795, 1417.795 182.125, 1416 178 C 1414.205 173.875, 1411.221 167.205, 1409.368 163.177 C 1407.516 159.149, 1406 155.665, 1406 155.433 C 1406 155.202, 1403.975 150.708, 1401.500 145.446 C 1399.025 140.185, 1397 135.694, 1397 135.467 C 1397 135.240, 1395.911 132.680, 1394.579 129.777 C 1389.549 118.810, 1386 110.849, 1386 110.530 C 1386 110.348, 1384.251 106.441, 1382.112 101.849 C 1379.974 97.257, 1377.034 90.665, 1375.578 87.199 C 1374.123 83.733, 1371.325 77.433, 1369.361 73.199 C 1367.396 68.965, 1365.111 64.037, 1364.281 62.250 L 1362.772 59 1319.421 59 C 1279.156 59, 1276.004 59.125, 1275.139 60.750 M 1712 342.907 L 1712 627 1753 627 L 1794 627 1794 375.477 L 1794 123.953 1848.250 124.094 C 1926.751 124.298, 1950.160 126.492, 1976.268 136.090 C 2009.906 148.456, 2030.615 171.378, 2037.624 204 C 2039.900 214.597, 2040.168 240.065, 2038.113 250.500 C 2028.666 298.469, 1993.474 326.462, 1931.135 335.593 C 1925.286 336.450, 1910.263 337.407, 1897.750 337.719 C 1882.484 338.099, 1875 338.641, 1875 339.365 C 1875 341.153, 1910.624 435.373, 1913.995 442.500 C 1914.515 443.600, 1918.726 453.950, 1923.353 465.500 C 1933.351 490.460, 1938.760 503.765, 1940.022 506.500 C 1940.530 507.600, 1941.870 510.975, 1943 514 C 1944.130 517.025, 1945.475 520.400, 1945.989 521.500 C 1946.503 522.600, 1950.329 532.050, 1954.493 542.500 C 1958.657 552.950, 1962.481 562.400, 1962.992 563.500 C 1963.980 565.628, 1969.417 579.067, 1984.636 617 C 1989.822 629.925, 1994.484 641.400, 1994.996 642.500 C 1995.967 644.586, 2007.955 674.173, 2011 682 C 2013.967 689.626, 2026.018 719.383, 2026.998 721.500 C 2027.506 722.600, 2031.329 732.050, 2035.493 742.500 C 2039.657 752.950, 2043.490 762.400, 2044.011 763.500 C 2044.533 764.600, 2047.918 772.925, 2051.534 782 C 2055.150 791.075, 2058.701 799.850, 2059.425 801.500 C 2060.149 803.150, 2063.837 812.257, 2067.621 821.738 L 2074.500 838.977 2137.250 838.988 C 2171.762 838.995, 2200 838.730, 2200 838.401 C 2200 837.855, 2197.759 833.627, 2189.984 819.500 C 2188.471 816.750, 2185.766 811.800, 2183.974 808.500 C 2177.629 796.816, 2176.329 794.431, 2172.804 788 C 2170.844 784.425, 2163.732 771.375, 2156.999 759 C 2150.266 746.625, 2143.406 734.025, 2141.753 731 C 2140.100 727.975, 2137.173 722.575, 2135.248 719 C 2133.322 715.425, 2131.423 712.050, 2131.027 711.500 C 2130.630 710.950, 2127.954 706.066, 2125.078 700.647 C 2122.203 695.228, 2119.060 689.378, 2118.095 687.647 C 2117.130 685.916, 2114.395 680.900, 2112.017 676.500 C 2108.122 669.291, 2065.943 591.971, 2057.194 576 C 2055.235 572.425, 2052.662 567.700, 2051.476 565.500 C 2046.135 555.594, 2042.119 548.228, 2040.299 545 C 2039.214 543.075, 2036.148 537.450, 2033.485 532.500 C 2030.822 527.550, 2021.299 510.067, 2012.322 493.648 C 2003.345 477.230, 1996 463.609, 1996 463.379 C 1996 463.149, 1994.955 461.282, 1993.677 459.230 C 1992.399 457.179, 1989.195 451.450, 1986.557 446.500 C 1979.240 432.773, 1974.983 424.903, 1972.491 420.500 C 1970.227 416.498, 1965.779 408.348, 1961.373 400.130 C 1960.085 397.726, 1959.264 395.381, 1959.550 394.919 C 1959.836 394.456, 1961.742 393.782, 1963.785 393.422 C 1971.978 391.976, 1990.760 387.189, 1998.059 384.686 C 2040.414 370.166, 2069.835 349.435, 2089.153 320.500 C 2105.560 295.924, 2113.863 270.061, 2115.479 238.500 C 2116.771 213.278, 2112.383 182.716, 2104.999 165.500 C 2088.564 127.181, 2065.231 103.132, 2026.500 84.595 C 2002.642 73.175, 1975.655 66.234, 1938 61.833 C 1921.748 59.933, 1913.063 59.752, 1816.250 59.301 L 1712 58.814 1712 342.907 M 2147.912 60.011 C 2136.953 61.866, 2123.976 71.117, 2118.678 80.851 C 2109.191 98.281, 2111.550 118.052, 2124.808 132.226 C 2130.549 138.363, 2136.324 141.804, 2144.856 144.170 C 2152.949 146.414, 2158.367 146.478, 2166.296 144.423 C 2174.318 142.345, 2179.216 139.759, 2184.756 134.679 C 2194.363 125.870, 2199 115.394, 2199 102.500 C 2199 89.442, 2194.205 78.752, 2184.527 70.233 C 2174.342 61.267, 2161.567 57.701, 2147.912 60.011 M 2143.942 64.828 C 2128.988 70.315, 2119.581 81.259, 2116.979 96.196 C 2114.048 113.031, 2122.877 130.070, 2138.692 138.097 C 2145.059 141.329, 2145.925 141.500, 2155.948 141.499 C 2165.257 141.499, 2167.162 141.188, 2172.120 138.864 C 2182.956 133.784, 2191.493 123.606, 2194.433 112.258 C 2196.404 104.652, 2196.407 100.358, 2194.445 92.787 C 2191.026 79.595, 2181.103 69.207, 2167.572 64.657 C 2161.292 62.546, 2149.938 62.627, 2143.942 64.828 M 2135 102.563 L 2135 122.127 2138.250 121.813 L 2141.500 121.500 2142 113.585 L 2142.500 105.670 2150.467 105.907 C 2160.605 106.208, 2162.851 107.541, 2166.838 115.625 C 2169.809 121.650, 2170.174 122, 2173.491 122 C 2175.421 122, 2177 121.762, 2177 121.471 C 2177 119.774, 2170.457 108.401, 2168.365 106.462 L 2165.874 104.154 2169.481 102.442 C 2178.710 98.062, 2177.162 86.915, 2166.917 83.976 C 2165.045 83.439, 2157.098 83, 2149.257 83 L 2135 83 2135 102.563 M 2142.202 94.133 L 2142.500 100.265 2153.487 100.073 C 2165.671 99.860, 2168 98.869, 2168 93.902 C 2168 89.149, 2165.027 88, 2152.730 88 L 2141.905 88 2142.202 94.133 M 1310.050 154.250 C 1305.453 165.938, 1301.109 176.850, 1300.397 178.500 C 1299.684 180.150, 1294.332 193.650, 1288.503 208.500 C 1282.674 223.350, 1277.499 236.400, 1277.004 237.500 C 1276.509 238.600, 1272.663 248.275, 1268.458 259 C 1264.252 269.725, 1255.639 291.550, 1249.318 307.500 C 1242.996 323.450, 1235.801 341.675, 1233.329 348 C 1230.857 354.325, 1228.435 360.400, 1227.945 361.500 C 1227.456 362.600, 1226.130 365.975, 1225 369 C 1223.870 372.025, 1222.517 375.400, 1221.994 376.500 C 1221.018 378.551, 1215 394.236, 1215 394.727 C 1215 395.335, 1426.716 394.951, 1427.325 394.342 C 1427.687 393.980, 1427.612 393.193, 1427.159 392.592 C 1426.706 391.991, 1425.742 389.925, 1425.018 388 C 1424.293 386.075, 1423.119 383.150, 1422.409 381.500 C 1421.699 379.850, 1418.823 372.875, 1416.018 366 C 1413.212 359.125, 1410.514 352.600, 1410.021 351.500 C 1409.528 350.400, 1405.694 341.175, 1401.500 331 C 1397.306 320.825, 1393.482 311.600, 1393.002 310.500 C 1392.521 309.400, 1390.109 303.550, 1387.642 297.500 C 1380.104 279.017, 1367.965 249.617, 1366.997 247.500 C 1366.494 246.400, 1363.796 239.875, 1361 233 C 1358.204 226.125, 1355.511 219.600, 1355.014 218.500 C 1354.518 217.400, 1351.361 209.750, 1348 201.500 C 1344.639 193.250, 1341.485 185.600, 1340.993 184.500 C 1340.500 183.400, 1337.228 175.525, 1333.720 167 C 1330.213 158.475, 1325.629 147.338, 1323.534 142.250 C 1321.440 137.162, 1319.429 133, 1319.067 133 C 1318.705 133, 1314.647 142.563, 1310.050 154.250 M 1711.785 723.014 C 1708.641 723.512, 1702.625 725.108, 1698.415 726.561 C 1672.544 735.491, 1658 754.722, 1658 780 C 1658 790.169, 1660.093 798.599, 1664.656 806.808 C 1669.190 814.963, 1672.906 819.125, 1680.409 824.445 C 1694.160 834.197, 1708.164 838.170, 1729 838.230 C 1748.321 838.286, 1760.984 835.235, 1771.522 827.985 L 1775.948 824.940 1777.355 828.307 C 1778.129 830.159, 1779.059 832.610, 1779.422 833.754 C 1779.986 835.531, 1781.034 835.881, 1786.643 836.166 C 1790.252 836.350, 1793.616 836.244, 1794.119 835.931 C 1794.645 835.603, 1794.920 823.532, 1794.766 807.431 L 1794.500 779.500 1765.704 779.235 L 1736.908 778.969 1737.204 785.735 L 1737.500 792.500 1756.750 792.772 L 1776 793.043 1776 800.825 C 1776 808.302, 1775.872 808.730, 1772.750 811.712 C 1768.477 815.792, 1760.066 820.186, 1752 822.552 C 1742.622 825.302, 1716.897 825.334, 1709.057 822.606 C 1696.783 818.333, 1687.502 810.830, 1683.048 801.576 C 1680.159 795.576, 1678 786.346, 1678 780 C 1678 768.305, 1683.948 753.822, 1691.430 747.300 C 1705.941 734.649, 1736.104 731.189, 1756.220 739.867 C 1762.871 742.736, 1769.749 749.356, 1771.033 754.122 L 1772.077 758 1782.164 758 L 1792.250 758 1791.634 754.920 C 1789.764 745.569, 1782.120 736.830, 1770.809 731.110 C 1758.341 724.806, 1750.165 722.969, 1732.500 722.503 C 1724.250 722.286, 1714.928 722.515, 1711.785 723.014 M 25.204 732.750 L 25.500 739.500 49.241 739.768 L 72.981 740.036 73.241 789.268 L 73.500 838.500 82.722 838.787 C 91.608 839.064, 91.964 838.991, 92.509 836.787 C 92.820 835.529, 92.945 813.237, 92.787 787.250 L 92.500 739.999 116.750 740 L 141 740 141 733 L 141 726 82.954 726 L 24.909 726 25.204 732.750 M 311 781.893 C 311 831.938, 311.166 837.850, 312.582 838.393 C 313.452 838.727, 317.679 839, 321.975 839 C 328.175 839, 329.911 838.674, 330.393 837.418 C 330.727 836.548, 331 825.523, 331 812.918 L 331 790 349.316 790 C 375.097 790, 382.682 791.703, 391.790 799.535 C 395.955 803.117, 399.729 809.934, 409.485 831.500 C 410.978 834.800, 412.717 837.831, 413.349 838.235 C 415.153 839.386, 431.796 839.139, 432.531 837.950 C 432.888 837.372, 432.396 835.235, 431.437 833.200 C 415.837 800.079, 411.969 794.100, 403.489 789.995 C 401.020 788.799, 399 787.462, 399 787.022 C 399 786.582, 400.462 785.943, 402.250 785.602 C 407.404 784.618, 415.438 780.503, 419.672 776.677 C 425.733 771.201, 428.333 765.058, 428.276 756.343 C 428.175 740.577, 418.652 731.387, 398.402 727.513 C 392.175 726.321, 382.074 726, 350.750 726 L 311 726 311 781.893 M 620.111 781.750 C 604.761 812.413, 592.408 837.837, 592.660 838.250 C 593.253 839.221, 610.136 839.201, 611.666 838.228 C 612.307 837.820, 616.458 829.945, 620.890 820.729 L 628.949 803.971 659.618 804.236 L 690.287 804.500 698.894 821.500 L 707.500 838.500 718.250 838.784 C 724.163 838.940, 729 838.670, 729 838.184 C 729 837.698, 726.831 833.295, 724.181 828.400 C 721.530 823.505, 717.313 815.675, 714.811 811 C 712.308 806.325, 708.570 799.350, 706.505 795.500 C 696.136 776.171, 685.210 755.680, 676.500 739.229 L 669.500 726.009 658.760 726.004 L 648.021 726 620.111 781.750 M 891.242 782.250 L 891.500 838.500 922.500 838.409 C 954.231 838.315, 963.939 837.410, 975.765 833.444 C 989.029 828.995, 1000.574 820.077, 1005.721 810.303 C 1010.591 801.053, 1012 794.589, 1012 781.500 C 1012 764.721, 1008.982 755.276, 1000.778 746.375 C 991.574 736.389, 980.720 731.060, 963.130 727.888 C 954.350 726.305, 947.687 726, 921.822 726 L 890.983 726 891.242 782.250 M 1181.983 726.714 C 1181.665 741.761, 1182.151 837.436, 1182.549 838.079 C 1182.862 838.586, 1187.133 839, 1192.040 839 C 1200.464 839, 1200.992 838.874, 1201.508 836.750 C 1201.808 835.513, 1201.929 810.200, 1201.777 780.500 L 1201.500 726.500 1191.750 726.214 C 1186.388 726.056, 1181.993 726.281, 1181.983 726.714 M 1381.242 782.250 L 1381.500 838.500 1390.500 838.500 L 1399.500 838.500 1400 794.581 L 1400.500 750.662 1409.464 761.081 C 1414.394 766.811, 1418.683 771.725, 1418.995 772 C 1419.307 772.275, 1427.643 781.950, 1437.521 793.500 C 1453.130 811.752, 1462.548 822.608, 1474.206 835.786 L 1477.113 839.071 1486.807 838.786 L 1496.500 838.500 1496.500 782.500 L 1496.500 726.500 1487.250 726.212 L 1478 725.925 1478 769.462 C 1478 793.408, 1477.662 813, 1477.250 813 C 1476.838 813, 1475.289 811.483, 1473.810 809.628 C 1472.330 807.773, 1464.680 798.847, 1456.810 789.792 C 1448.939 780.737, 1433.311 762.679, 1422.080 749.664 L 1401.661 726 1391.322 726 L 1380.983 726 1381.242 782.250 M 331 757.500 L 331 777 351.750 776.999 C 397.653 776.997, 408 773.519, 408 758.087 C 408 750.179, 405.612 746.168, 398.893 742.785 C 391.402 739.014, 381.980 738, 354.428 738 L 331 738 331 757.500 M 910.239 782.250 L 910.500 824.500 931.758 824.356 C 948.106 824.245, 954.689 823.810, 960.258 822.474 C 975.718 818.764, 984.904 811.987, 989.134 801.168 C 992.193 793.341, 992.946 774.768, 990.540 766.488 C 987.510 756.066, 982.569 750.285, 972.772 745.698 C 962.943 741.096, 955.011 740, 931.542 740 L 909.978 740 910.239 782.250 M 653.998 750.250 C 651.618 755.337, 646.370 766.413, 642.336 774.863 C 638.301 783.312, 635 790.625, 635 791.113 C 635 791.605, 645.942 792, 659.583 792 C 673.104 792, 684.017 791.654, 683.833 791.232 C 682.061 787.147, 658.958 741, 658.686 741 C 658.488 741, 656.378 745.163, 653.998 750.250" stroke="none" fill="#000000" fill-rule="evenodd"/>
</svg>